<?xml version="1.0" standalone="no"?>
<!DOCTYPE svg PUBLIC "-//W3C//DTD SVG 20010904//EN"
 "http://www.w3.org/TR/2001/REC-SVG-20010904/DTD/svg10.dtd">
<svg version="1.0" xmlns="http://www.w3.org/2000/svg"
 width="512.000000pt" height="512.000000pt" viewBox="0 0 512.000000 512.000000"
 preserveAspectRatio="xMidYMid meet">
<metadata>
Created by potrace 1.14, written by Peter Selinger 2001-2017
</metadata>
<g transform="translate(0.000000,512.000000) scale(0.100000,-0.100000)"
fill="#000000" stroke="none">
<path d="M222 5098 c-85 -28 -150 -87 -188 -170 l-29 -63 0 -2295 c0 -1871 2
-2303 13 -2340 18 -62 59 -118 116 -162 96 -72 -100 -67 2441 -65 l2290 2 68
33 c75 37 129 94 162 170 20 47 20 61 23 2322 2 1564 -1 2291 -8 2326 -26 125
-111 216 -233 249 -44 11 -404 14 -2322 14 l-2270 0 -63 -21z"/>
</g>
</svg>
